<?xml version="1.0" encoding="UTF-8"?>
<!DOCTYPE svg PUBLIC "-//W3C//DTD SVG 1.1//EN" "http://www.w3.org/Graphics/SVG/1.1/DTD/svg11.dtd">
<!-- Creator: CorelDRAW -->
<svg xmlns="http://www.w3.org/2000/svg" xml:space="preserve" width="499px" height="208px" style="shape-rendering:geometricPrecision; text-rendering:geometricPrecision; image-rendering:optimizeQuality; fill-rule:evenodd; clip-rule:evenodd"
viewBox="0 0 499 193.552"
 xmlns:xlink="http://www.w3.org/1999/xlink">
 <defs>
  <style type="text/css">
   <![CDATA[
    .fil0 {fill:#2F3236}
    .fil1 {fill:#2F3236;fill-rule:nonzero}
   ]]>
  </style>
 </defs>
 <g id="Слой_x0020_1">
  <metadata id="CorelCorpID_0Corel-Layer"/>
  <g id="_116429400">
   <path id="_118545328" class="fil0" d="M3.56323 94.4965c16.5517,15.4114 36.2188,12.8132 56.3213,8.44822 -0.981703,-5.64475 -0.291335,-7.80305 6.33142,-8.3333 24.1308,-1.93148 80.3121,26.5228 125.798,31.6485 17.7536,2.00054 29.1142,-1.80094 42.1544,-13.6155 -5.79613,18.8872 -20.81,20.3894 -42.2974,16.6852 -17.2027,-2.96594 -42.9352,-1.21541 -58.7639,-5.03452 -3.37136,-0.813521 -5.68474,-3.18621 -5.94936,-6.64426 -7.236,-0.342579 -27.0085,0.520506 -28.3365,10.1527 -1.61276,11.6944 12.5432,8.71822 18.6366,7.05657 -5.81007,11.1064 -28.0287,15.6293 -31.6122,-2.24886 -1.89654,-9.46252 8.96587,-18.4395 14.403,-19.9669 -30.9597,-10.7371 -55.9789,0.189183 -88.9302,1.87301 -10.3989,0.530923 -15.1021,-10.4577 -7.75483,-20.021zm253.603 -59.6068c4.16102,6.89628 12.4202,16.4144 20.8469,17.7736 10.9239,1.76162 16.0927,-10.89 4.18488,-10.89 8.19671,-5.99539 13.7259,-2.58102 12.0464,7.50953 12.9186,-16.4033 -11.6758,-27.1211 -16.1142,-9.85617 -4.46496,-19.0719 18.7367,-24.245 26.8899,-8.23988 6.76069,13.2685 -2.87975,23.5696 -15.5915,26.0075 -16.7288,3.20906 -28.547,-7.76827 -32.2625,-22.3046zm-7.66595 50.0635c7.18694,-7.18694 8.25551,-11.3599 7.50953,-21.4335 4.0372,1.85 4.70606,1.93232 8.44822,-0.312841 -7.60664,-6.89998 -12.6227,-14.6565 -15.9578,-25.5011 -3.33507,10.8446 -8.35111,18.6011 -15.9578,25.5011 3.74216,2.24516 4.41103,2.16284 8.44822,0.312841 -0.74598,10.0736 0.322586,14.2465 7.50953,21.4335zm31.9155 9.38691c-10.5185,22.2579 27.1797,25.0325 35.2817,3.26618 7.04531,-18.9274 -3.40412,-33.7164 -21.188,-33.3362 -26.7222,0.57175 -42.5294,24.5602 -36.9351,53.6937 0.286799,-20.0588 3.27425,-39.9499 25.8139,-46.3087 8.36438,3.84516 7.10915,9.33802 0.931971,15.6945 13.5814,4.03132 19.0904,-10.9165 0.945412,-17.5719 39.4479,-8.57574 17.3413,49.7787 -4.84988,24.5624zm23.1543 23.7801c11.2554,-8.17302 19.737,-12.8436 25.3216,-26.3144 4.22117,-10.1825 3.53316,-22.4315 -8.73804,-30.3199 28.5789,-7.14091 27.0224,16.1261 12.203,34.4187 8.21535,-6.43895 12.5871,-10.5452 22.685,-12.3594 0.996488,8.9857 1.37469,11.4044 -4.53704,18.4608 5.80638,-2.97552 11.0047,-4.74756 15.1147,-9.79031 10.6022,-13.0059 25.722,-22.1947 46.3695,-6.48028 -17.692,6.15417 -35.2291,12.4654 -52.9189,18.6174 -17.7454,6.17113 -36.8447,11.3777 -55.4999,13.7674zm143.927 3.88901c-2.99316,7.20559 -6.80875,9.68799 -11.0471,9.36389 -9.50839,-0.72817 -16.5182,-12.49 -24.2205,-18.0835 11.1205,1.81287 18.2903,7.44199 30.0084,8.31331 1.9004,0.140795 3.77627,0.283103 5.25916,0.406257zm46.9404 -27.5127c-16.5517,15.4114 -36.2188,12.8132 -56.3213,8.44822 0.981703,-5.64475 0.291335,-7.80305 -6.33142,-8.3333 -24.1308,-1.93148 -80.3121,26.5228 -125.798,31.6485 -17.7536,2.00054 -29.1142,-1.80094 -42.1544,-13.6155 5.79596,18.8872 20.8098,20.3894 42.2974,16.6852 17.2027,-2.96594 42.9352,-1.21541 58.7639,-5.03452 3.37136,-0.813521 5.68474,-3.18621 5.94936,-6.64426 7.236,-0.342579 27.0085,0.520506 28.3365,10.1527 1.61276,11.6944 -12.5432,8.71822 -18.6366,7.05657 5.81007,11.1064 28.0287,15.6293 31.6122,-2.24886 1.89654,-9.46252 -8.96587,-18.4395 -14.403,-19.9669 30.9597,-10.7371 55.9789,0.189183 88.9302,1.87301 10.3989,0.530923 15.1021,-10.4577 7.75483,-20.021zm-253.603 -59.6068c-4.16102,6.89628 -12.4202,16.4144 -20.8469,17.7736 -10.9239,1.76162 -16.0927,-10.89 -4.18488,-10.89 -8.19687,-5.99539 -13.7259,-2.58102 -12.0464,7.50953 -12.9186,-16.4033 11.6758,-27.1211 16.1142,-9.85617 4.46496,-19.0719 -18.7369,-24.245 -26.8899,-8.23988 -6.76069,13.2685 2.87975,23.5696 15.5915,26.0075 16.7288,3.20906 28.547,-7.76827 32.2625,-22.3046zm-24.2496 59.4504c10.5185,22.2579 -27.1797,25.0325 -35.2817,3.26618 -7.04531,-18.9274 3.40412,-33.7164 21.188,-33.3362 26.7222,0.57175 42.5294,24.5602 36.9351,53.6937 -0.286799,-20.0588 -3.27425,-39.9499 -25.8139,-46.3087 -8.36438,3.84516 -7.10915,9.33802 -0.931971,15.6945 -13.5814,4.03132 -19.0904,-10.9165 -0.945412,-17.5719 -39.4479,-8.57574 -17.3413,49.7787 4.84988,24.5624zm-23.1543 23.7801c-11.2554,-8.17302 -19.737,-12.8436 -25.3216,-26.3144 -4.22117,-10.1825 -3.53316,-22.4315 8.73804,-30.3199 -28.5789,-7.14091 -27.0226,16.1261 -12.203,34.4187 -8.21535,-6.43895 -12.5871,-10.5452 -22.685,-12.3594 -0.996488,8.9857 -1.37469,11.4044 4.53704,18.4608 -5.80638,-2.97552 -11.0047,-4.74756 -15.1147,-9.79031 -10.6022,-13.0059 -25.722,-22.1947 -46.3695,-6.48028 17.692,6.15417 35.2291,12.4654 52.9189,18.6174 17.7454,6.17113 36.8447,11.3777 55.4999,13.7674zm-143.927 3.88901c2.99316,7.20559 6.80875,9.68799 11.0471,9.36389 9.50839,-0.72817 16.5182,-12.49 24.2205,-18.0835 -11.1205,1.81287 -18.2903,7.44199 -30.0084,8.31331 -1.9004,0.140795 -3.77627,0.283103 -5.25916,0.406257z"/>
   <path id="_116428488" class="fil1" d="M141.172 141.434c2.7524,0 5.28318,0.196576 7.5932,0.589559 2.31002,0.39332 4.30014,0.884591 5.97103,1.47415l0 12.6061 -5.89744 0 0 -7.37176c-0.983047,-0.245636 -2.13797,-0.454644 -3.46494,-0.62669 -1.32697,-0.172046 -2.62924,-0.257901 -3.90665,-0.257901 -2.80129,0 -5.19733,0.479342 -7.18812,1.43769 -1.99012,0.958181 -3.63632,2.29758 -4.93859,4.01737 -1.30278,1.71979 -2.26113,3.80903 -2.87538,6.26623 -0.614257,2.4572 -0.92105,5.18473 -0.92105,8.18276 0,2.80112 0.233203,5.38147 0.70028,7.74038 0.466405,2.35891 1.25338,4.38616 2.35874,6.08175 1.10553,1.69509 2.59211,3.02206 4.45992,3.98041 1.86764,0.958181 4.22638,1.43769 7.07706,1.43769 1.17929,0 2.55565,-0.0860229 4.12826,-0.257901 1.57261,-0.172046 2.89958,-0.429946 3.98091,-0.774038l0 -14.1538 -7.298 0 0 -5.52882 18.4292 0 0 5.52882 -3.68588 0 0 19.2402c-2.65394,0.835195 -5.35677,1.46189 -8.10917,1.88007 -2.75223,0.417681 -5.40567,0.626018 -7.96115,0.626018 -4.22655,0 -7.77751,-0.650716 -10.6524,-1.95299 -2.87538,-1.30278 -5.19716,-3.09632 -6.96651,-5.38147 -1.76935,-2.28532 -3.035,-5.00058 -3.7966,-8.1463 -0.761437,-3.14521 -1.14266,-6.56059 -1.14266,-10.2465 0,-2.80129 0.331659,-5.75026 0.99548,-8.84658 0.663149,-3.09565 1.89183,-5.94633 3.68588,-8.55071 1.79338,-2.60522 4.25124,-4.75495 7.37159,-6.45054 3.12102,-1.69576 7.13856,-2.54322 12.053,-2.54322zm35.9745 20.5672c0.736739,-0.639123 1.62133,-1.31471 2.65394,-2.02725 1.03177,-0.712713 2.1373,-1.3636 3.31709,-1.95366 1.17912,-0.589559 2.38361,-1.08083 3.61229,-1.47432 1.22851,-0.392815 2.40763,-0.589559 3.53853,-0.589559 0.688015,0 1.20382,0.184479 1.54791,0.5531 0.343924,0.368118 0.515801,1.01951 0.515801,1.95299 0,0.983047 -0.196576,2.16284 -0.589559,3.5387 -0.39332,1.37586 -1.00774,2.50676 -1.84277,3.39135l-12.827 0.0735899 0 21.8942 5.38097 0 0 5.52882 -18.282 0 0 -5.52882 5.01285 0 0 -24.9167 -4.865 0 0 -5.60241 12.6054 0 0 5.08644 0.22161 0.0735899zm52.0447 12.9004c0,2.40831 -0.295032,4.73076 -0.884591,6.96651 -0.590231,2.23643 -1.56085,4.21411 -2.91201,5.93457 -1.35167,1.71979 -3.12102,3.09632 -5.30788,4.12826 -2.18686,1.03177 -4.90213,1.54774 -8.14563,1.54774 -3.04743,0 -5.61467,-0.491103 -7.70392,-1.47415 -2.08841,-0.983047 -3.78417,-2.32245 -5.08644,-4.01754 -1.3021,-1.69559 -2.24802,-3.64925 -2.83825,-5.86098 -0.589559,-2.21156 -0.884591,-4.57047 -0.884591,-7.07656 0,-2.4572 0.31973,-4.82837 0.958853,-7.11369 0.638451,-2.28532 1.6462,-4.30014 3.02206,-6.04529 1.37637,-1.74465 3.14504,-3.14521 5.30788,-4.20185 2.16217,-1.05664 4.76721,-1.58487 7.81397,-1.58487 3.09632,0 5.71313,0.528234 7.8511,1.58487 2.13814,1.05664 3.85793,2.44493 5.1602,4.16539 1.3021,1.71979 2.23626,3.72234 2.80112,6.00816 0.565365,2.28515 0.848132,4.6318 0.848132,7.03943zm-8.03541 0.147852c0,-1.52371 -0.110721,-3.05919 -0.331659,-4.6076 -0.221442,-1.54774 -0.638955,-2.94847 -1.25338,-4.20185 -0.614257,-1.25321 -1.47415,-2.27289 -2.58035,-3.05902 -1.10553,-0.786303 -2.54322,-1.17979 -4.3124,-1.17979 -1.81824,0 -3.31726,0.381055 -4.49638,1.14266 -1.17962,0.761437 -2.11327,1.75692 -2.80179,2.98543 -0.687847,1.22868 -1.16669,2.61698 -1.43702,4.16539 -0.270334,1.54774 -0.405921,3.13278 -0.405921,4.75478 0,1.67089 0.110721,3.26837 0.332163,4.79141 0.220938,1.52371 0.650884,2.86312 1.29001,4.01804 0.638955,1.15492 1.53548,2.07614 2.6904,2.76399 1.15492,0.688015 2.69107,1.03194 4.6076,1.03194 1.76935,0 3.2188,-0.368118 4.34903,-1.10553 1.1309,-0.737411 2.01549,-1.69559 2.65394,-2.87471 0.639123,-1.17979 1.08133,-2.51919 1.32697,-4.01804 0.245636,-1.49902 0.36879,-3.03449 0.36879,-4.6071zm18.8714 6.85579l0.22161 4.57047c0.982879,0.540667 2.162,0.921218 3.53853,1.14266 1.37586,0.22077 2.62924,0.331659 3.75947,0.331659 2.21156,0 4.09113,-0.356357 5.63954,-1.06907 1.54774,-0.712713 2.32178,-1.95299 2.32178,-3.72234 0,-0.884759 -0.184479,-1.62217 -0.552428,-2.21173 -0.36879,-0.590063 -0.872326,-1.09377 -1.51145,-1.51128 -0.638955,-0.417513 -1.38813,-0.77387 -2.24869,-1.06907 -0.859893,-0.295032 -1.75692,-0.589559 -2.6904,-0.884591 -1.67106,-0.491103 -3.31726,-0.983047 -4.93926,-1.47415 -1.6215,-0.491943 -3.07162,-1.13023 -4.34903,-1.91653 -1.27808,-0.786303 -2.31002,-1.75692 -3.09632,-2.91201 -0.786303,-1.15492 -1.17979,-2.64151 -1.17979,-4.46042 0,-1.86697 0.356357,-3.46427 1.06907,-4.79124 0.712713,-1.32697 1.69576,-2.42074 2.94847,-3.28063 1.25338,-0.859893 2.75223,-1.49902 4.49688,-1.91653 1.74516,-0.417681 3.64925,-0.62669 5.71313,-0.62669 2.11327,0 4.21479,0.209009 6.30319,0.62669 2.08858,0.417513 3.94395,1.11779 5.56595,2.10084 0,1.42526 0.0117609,2.86312 0.0364589,4.31257 0.024866,1.44996 0.0613249,2.91184 0.110721,4.38616l-5.82385 0 -0.14718 -4.79141c-1.67089,-0.688015 -3.51383,-1.03261 -5.52882,-1.03261 -1.86764,0 -3.45251,0.356357 -4.75478,1.06907 -1.30294,0.712713 -1.95366,1.92896 -1.95366,3.64942 0,0.736739 0.233203,1.36343 0.70028,1.8794 0.467077,0.516473 1.05664,0.958853 1.76935,1.32697 0.712545,0.368622 1.46172,0.676086 2.24802,0.921722 0.786303,0.245636 1.52371,0.467077 2.21173,0.663149 1.47415,0.442379 3.02256,0.897024 4.64406,1.3641 1.62217,0.467077 3.10875,1.11796 4.46042,1.95366 1.35116,0.835195 2.4572,1.92896 3.31709,3.28013 0.859893,1.35167 1.28984,3.13328 1.28984,5.34501 0,1.76935 -0.368622,3.30466 -1.10553,4.60693 -0.737411,1.30227 -1.78161,2.37134 -3.13328,3.20704 -1.35116,0.835195 -2.9856,1.46189 -4.90213,1.8794 -1.91653,0.418186 -4.0298,0.62669 -6.33982,0.62669 -2.11327,0 -4.42329,-0.184311 -6.92938,-0.552428 -2.50676,-0.368622 -4.74252,-1.11847 -6.70844,-2.24869l-0.147348 -8.77232 5.676 0zm34.9426 -2.80112l0.0735899 6.04462c1.81824,0.835195 3.66118,1.41299 5.52882,1.73222 1.86764,0.319898 3.61229,0.479342 5.23429,0.479342 1.91653,0 3.58742,-0.245468 5.01285,-0.737411 1.42526,-0.491103 2.60438,-1.11779 3.53853,-1.8794 0.933651,-0.762109 1.63393,-1.6467 2.10101,-2.65394 0.466405,-1.00774 0.70028,-2.02725 0.70028,-3.05919 0,-1.52371 -0.282767,-2.75223 -0.848132,-3.68638 -0.564861,-0.933483 -1.35116,-1.69509 -2.35891,-2.28532 -1.00707,-0.589559 -2.18686,-1.0931 -3.5387,-1.51061 -1.351,-0.418186 -2.83758,-0.848132 -4.45975,-1.29051 -2.26045,-0.491271 -4.37373,-1.10553 -6.33982,-1.84294 -1.96525,-0.736739 -3.68571,-1.63376 -5.16003,-2.6904 -1.47415,-1.05664 -2.64151,-2.34715 -3.5014,-3.87019 -0.860565,-1.52371 -1.29051,-3.34196 -1.29051,-5.45523 0.049396,-2.40831 0.540667,-4.53401 1.47482,-6.37695 0.933483,-1.84294 2.1993,-3.37841 3.79593,-4.60693 1.5973,-1.22868 3.46494,-2.16284 5.60308,-2.80129 2.1373,-0.638955 4.45975,-0.958853 6.96584,-0.958853 1.08133,0 2.26113,0.049564 3.53853,0.147852 1.27825,0.0984559 2.56809,0.258069 3.87019,0.478838 1.30227,0.221442 2.59278,0.540667 3.87036,0.958349 1.27808,0.418186 2.4572,0.921722 3.53853,1.51128l0.0735899 10.5415 -5.97103 0 -0.0735899 -6.11821c-1.13039,-0.491271 -2.54322,-0.835867 -4.23898,-1.03194 -1.69576,-0.196744 -3.20637,-0.295032 -4.53334,-0.295032 -1.27808,0 -2.49433,0.159613 -3.64942,0.479342 -1.15492,0.319226 -2.16217,0.798064 -3.02256,1.43719 -0.860061,0.638955 -1.54791,1.43769 -2.06388,2.39587 -0.515969,0.958349 -0.77387,2.05212 -0.77387,3.28063 0,1.17912 0.306793,2.1993 0.921218,3.05919 0.614257,0.859893 1.43769,1.60974 2.46946,2.24819 1.03194,0.639123 2.22399,1.19206 3.57583,1.65913 1.351,0.466573 2.76399,0.872326 4.23831,1.21625 2.06438,0.491271 4.09163,1.06907 6.08175,1.73222 1.99079,0.663149 3.7719,1.54791 5.34451,2.65394 1.57311,1.10553 2.83825,2.50609 3.79643,4.20185 0.958349,1.69559 1.43786,3.84549 1.43786,6.45054 0,2.60438 -0.47951,4.8408 -1.43786,6.70794 -0.958181,1.86764 -2.29758,3.41605 -4.01737,4.64473 -1.71979,1.22851 -3.78417,2.12554 -6.19247,2.6904 -2.4078,0.565365 -5.06174,0.84746 -7.96132,0.84746 -2.85068,0 -5.77445,-0.269662 -8.77232,-0.810329 -2.99786,-0.540667 -5.79915,-1.49902 -8.4042,-2.87538 0,-1.76935 -0.012433,-3.55046 -0.0364589,-5.34451 -0.024698,-1.79338 -0.037131,-3.59986 -0.037131,-5.41793l5.89744 0zm48.0639 -31.7727l0 9.50973 10.6894 0 0 5.60241 -10.7631 0 0 18.7979c0,0.934155 0.061997,1.75692 0.184479,2.46963 0.122986,0.712713 0.356357,1.31454 0.70028,1.80648 0.343924,0.491103 0.835699,0.872158 1.47415,1.14249 0.639123,0.270334 1.49902,0.405248 2.58035,0.405248 0.835867,0 1.80648,-0.0735899 2.91201,-0.22077 1.10553,-0.147852 2.34648,-0.418186 3.72284,-0.811169l1.17912 5.30805c-1.42526,0.638451 -3.00963,1.13023 -4.75478,1.47415 -1.74448,0.343924 -3.37841,0.515969 -4.90213,0.515969 -2.06371,0 -3.7966,-0.221442 -5.19716,-0.663149 -1.40056,-0.442379 -2.51852,-1.0815 -3.35422,-1.9172 -0.835195,-0.835195 -1.42543,-1.84294 -1.76935,-3.02206 -0.343924,-1.17979 -0.515969,-2.50676 -0.515969,-3.98091l0 -21.3046 -5.16003 0 0 -4.42329 5.52882 -1.69509 2.21156 -8.33061 5.23379 -0.663149zm18.4297 15.1857l0 -5.60241 11.5736 0 0 30.2984 5.30788 0 0 4.71782c-1.03261,0.491103 -2.22399,0.859893 -3.57583,1.10553 -1.351,0.24614 -2.51835,0.368622 -3.5014,0.368622 -2.11327,0 -3.63699,-0.429946 -4.57047,-1.28984 -0.933651,-0.859893 -1.42543,-2.37117 -1.47432,-4.53401l0 -25.0641 -3.75947 0zm12.311 -15.7017c0,1.32697 -0.47951,2.46963 -1.43786,3.42781 -0.958181,0.958349 -2.12554,1.43719 -3.5014,1.43719 -1.32697,0 -2.4572,-0.478838 -3.39135,-1.43719 -0.933483,-0.958181 -1.40056,-2.10084 -1.40056,-3.42781 0,-1.37653 0.467077,-2.53079 1.40056,-3.46494 0.934155,-0.933651 2.06438,-1.40073 3.39135,-1.40073 1.37586,0 2.54322,0.467077 3.5014,1.40073 0.958349,0.934155 1.43786,2.08841 1.43786,3.46494zm23.0733 40.5448l5.08644 0 0 5.52882 -17.9133 0 0 -5.52882 5.01285 0 0 -41.4294 -5.52882 0 0 -5.60308 13.3428 0 0 47.0325z"/>
  </g>
  <path class="fil0" d="M261.649 2.99904c-12.1655,8.51005 -10.8229,16.1516 -12.1489,28.479 -1.32596,-12.3273 0.0166333,-19.9689 -12.1489,-28.479 3.57398,0.105512 5.4349,-1.07109 8.0833,-2.10622 1.52371,-0.596112 2.79457,-0.89316 4.06559,-0.892824 1.27102,-0.000336027 2.54188,0.296712 4.06559,0.892824 2.6484,1.03513 4.50931,2.21173 8.0833,2.10622z"/>
  <path class="fil0" d="M227.355 9.56484c3.99015,-0.49396 5.63416,-1.78951 7.49474,-1.50322 9.48083,1.45852 9.54485,15.8774 7.97526,20.691 -2.13175,-10.5983 -7.81531,-17.0352 -15.47,-19.1878z"/>
  <path class="fil0" d="M237.351 2.99904c12.1655,8.51005 10.8229,16.1516 12.1489,28.479 1.32596,-12.3273 -0.0166333,-19.9689 12.1489,-28.479 -3.57398,0.105512 -5.4349,-1.07109 -8.0833,-2.10622 -1.52371,-0.596112 -2.79457,-0.89316 -4.06559,-0.892824 -1.27102,-0.000336027 -2.54188,0.296712 -4.06559,0.892824 -2.6484,1.03513 -4.50931,2.21173 -8.0833,2.10622z"/>
  <path class="fil0" d="M271.645 9.56484c-3.99015,-0.49396 -5.63416,-1.78951 -7.49474,-1.50322 -9.48083,1.45852 -9.54485,15.8774 -7.97526,20.691 2.13175,-10.5983 7.81531,-17.0352 15.47,-19.1878z"/>
 </g>
</svg>
